<svg width="389" height="161" viewBox="0 0 389 161" fill="none" xmlns="http://www.w3.org/2000/svg">
<path d="M275.812 32.8047C275.812 31.8594 275.48 31.1133 274.816 30.5664C274.152 30.0117 272.938 29.4883 271.172 28.9961C269.406 28.4961 268.117 27.9531 267.305 27.3672C266.148 26.5391 265.57 25.4531 265.57 24.1094C265.57 22.8047 266.105 21.7461 267.176 20.9336C268.254 20.1133 269.629 19.7031 271.301 19.7031C272.434 19.7031 273.445 19.9219 274.336 20.3594C275.234 20.7969 275.93 21.4062 276.422 22.1875C276.914 22.9688 277.16 23.8398 277.16 24.8008H275.707C275.707 23.6367 275.309 22.7031 274.512 22C273.715 21.2891 272.645 20.9336 271.301 20.9336C269.996 20.9336 268.957 21.2266 268.184 21.8125C267.41 22.3906 267.023 23.1484 267.023 24.0859C267.023 24.9531 267.371 25.6602 268.066 26.207C268.762 26.7539 269.875 27.2383 271.406 27.6602C272.938 28.0742 274.098 28.5078 274.887 28.9609C275.676 29.4062 276.27 29.9414 276.668 30.5664C277.066 31.1914 277.266 31.9297 277.266 32.7812C277.266 34.125 276.727 35.2031 275.648 36.0156C274.578 36.8281 273.164 37.2344 271.406 37.2344C270.203 37.2344 269.098 37.0195 268.09 36.5898C267.09 36.1602 266.328 35.5586 265.805 34.7852C265.289 34.0117 265.031 33.125 265.031 32.125H266.473C266.473 33.3281 266.922 34.2773 267.82 34.9727C268.719 35.668 269.914 36.0156 271.406 36.0156C272.734 36.0156 273.801 35.7227 274.605 35.1367C275.41 34.5508 275.812 33.7734 275.812 32.8047ZM281.625 37H280.219V24.3203H281.625V37ZM279.973 20.6523C279.973 20.3867 280.059 20.1641 280.23 19.9844C280.402 19.7969 280.637 19.7031 280.934 19.7031C281.23 19.7031 281.465 19.7969 281.637 19.9844C281.816 20.1641 281.906 20.3867 281.906 20.6523C281.906 20.918 281.816 21.1406 281.637 21.3203C281.465 21.5 281.23 21.5898 280.934 21.5898C280.637 21.5898 280.402 21.5 280.23 21.3203C280.059 21.1406 279.973 20.918 279.973 20.6523ZM293.039 33.7773C293.039 33.082 292.758 32.5234 292.195 32.1016C291.641 31.6797 290.801 31.3516 289.676 31.1172C288.551 30.875 287.676 30.6016 287.051 30.2969C286.434 29.9844 285.973 29.6055 285.668 29.1602C285.371 28.7148 285.223 28.1758 285.223 27.543C285.223 26.543 285.641 25.7188 286.477 25.0703C287.312 24.4141 288.383 24.0859 289.688 24.0859C291.102 24.0859 292.234 24.4375 293.086 25.1406C293.945 25.8359 294.375 26.7461 294.375 27.8711H292.969C292.969 27.1289 292.656 26.5117 292.031 26.0195C291.414 25.5273 290.633 25.2812 289.688 25.2812C288.766 25.2812 288.023 25.4883 287.461 25.9023C286.906 26.3086 286.629 26.8398 286.629 27.4961C286.629 28.1289 286.859 28.6211 287.32 28.9727C287.789 29.3164 288.637 29.6328 289.863 29.9219C291.098 30.2109 292.02 30.5195 292.629 30.8477C293.246 31.1758 293.703 31.5703 294 32.0312C294.297 32.4922 294.445 33.0508 294.445 33.707C294.445 34.7773 294.012 35.6328 293.145 36.2734C292.285 36.9141 291.16 37.2344 289.77 37.2344C288.293 37.2344 287.094 36.8789 286.172 36.168C285.258 35.4492 284.801 34.543 284.801 33.4492H286.207C286.262 34.2695 286.605 34.9102 287.238 35.3711C287.879 35.8242 288.723 36.0508 289.77 36.0508C290.746 36.0508 291.535 35.8359 292.137 35.4062C292.738 34.9766 293.039 34.4336 293.039 33.7773ZM299.789 21.0742V24.3203H302.414V25.4688H299.789V33.918C299.789 34.6211 299.914 35.1445 300.164 35.4883C300.422 35.832 300.848 36.0039 301.441 36.0039C301.676 36.0039 302.055 35.9648 302.578 35.8867L302.637 37.0352C302.27 37.168 301.77 37.2344 301.137 37.2344C300.176 37.2344 299.477 36.957 299.039 36.4023C298.602 35.8398 298.383 35.0156 298.383 33.9297V25.4688H296.051V24.3203H298.383V21.0742H299.789ZM310.23 37.2344C309.152 37.2344 308.176 36.9688 307.301 36.4375C306.434 35.9062 305.758 35.168 305.273 34.2227C304.789 33.2695 304.547 32.2031 304.547 31.0234V30.5195C304.547 29.3008 304.781 28.2031 305.25 27.2266C305.727 26.25 306.387 25.4844 307.23 24.9297C308.074 24.3672 308.988 24.0859 309.973 24.0859C311.512 24.0859 312.73 24.6133 313.629 25.668C314.535 26.7148 314.988 28.1484 314.988 29.9688V30.7539H305.941V31.0234C305.941 32.4609 306.352 33.6602 307.172 34.6211C308 35.5742 309.039 36.0508 310.289 36.0508C311.039 36.0508 311.699 35.9141 312.27 35.6406C312.848 35.3672 313.371 34.9297 313.84 34.3281L314.719 34.9961C313.688 36.4883 312.191 37.2344 310.23 37.2344ZM309.973 25.2812C308.918 25.2812 308.027 25.668 307.301 26.4414C306.582 27.2148 306.145 28.2539 305.988 29.5586H313.594V29.4062C313.555 28.1875 313.207 27.1953 312.551 26.4297C311.895 25.6641 311.035 25.2812 309.973 25.2812ZM318.996 24.3203L319.043 26.3828C319.512 25.6172 320.098 25.043 320.801 24.6602C321.504 24.2773 322.285 24.0859 323.145 24.0859C325.145 24.0859 326.414 24.9062 326.953 26.5469C327.406 25.7578 328.012 25.1523 328.77 24.7305C329.527 24.3008 330.363 24.0859 331.277 24.0859C333.996 24.0859 335.383 25.5703 335.438 28.5391V37H334.031V28.6445C334.023 27.5117 333.777 26.6719 333.293 26.125C332.816 25.5781 332.035 25.3047 330.949 25.3047C329.941 25.3203 329.09 25.6484 328.395 26.2891C327.699 26.9219 327.312 27.6953 327.234 28.6094V37H325.828V28.5391C325.82 27.4531 325.562 26.6445 325.055 26.1133C324.555 25.5742 323.781 25.3047 322.734 25.3047C321.852 25.3047 321.094 25.5586 320.461 26.0664C319.828 26.5664 319.359 27.3125 319.055 28.3047V37H317.648V24.3203H318.996ZM267.914 65H266.473V47.9375H267.914V65ZM273.562 52.3203L273.609 54.4883C274.086 53.707 274.68 53.1133 275.391 52.707C276.102 52.293 276.887 52.0859 277.746 52.0859C279.105 52.0859 280.117 52.4688 280.781 53.2344C281.445 54 281.781 55.1484 281.789 56.6797V65H280.395V56.668C280.387 55.5352 280.145 54.6914 279.668 54.1367C279.199 53.582 278.445 53.3047 277.406 53.3047C276.539 53.3047 275.77 53.5781 275.098 54.125C274.434 54.6641 273.941 55.3945 273.621 56.3164V65H272.227V52.3203H273.562ZM286.43 65V53.4688H284.332V52.3203H286.43V50.7852C286.43 49.4883 286.758 48.4922 287.414 47.7969C288.078 47.1016 289 46.7539 290.18 46.7539C290.711 46.7539 291.207 46.8203 291.668 46.9531L291.562 48.125C291.172 48.0312 290.746 47.9844 290.285 47.9844C289.512 47.9844 288.91 48.2266 288.48 48.7109C288.051 49.1875 287.836 49.8672 287.836 50.75V52.3203H290.859V53.4688H287.836V65H286.43ZM292.594 58.4727C292.594 57.2539 292.828 56.1562 293.297 55.1797C293.773 54.2031 294.441 53.4453 295.301 52.9062C296.168 52.3594 297.148 52.0859 298.242 52.0859C299.93 52.0859 301.297 52.6797 302.344 53.8672C303.391 55.0469 303.914 56.6133 303.914 58.5664V58.8594C303.914 60.0859 303.676 61.1914 303.199 62.1758C302.73 63.1523 302.066 63.9062 301.207 64.4375C300.348 64.9688 299.367 65.2344 298.266 65.2344C296.586 65.2344 295.219 64.6445 294.164 63.4648C293.117 62.2773 292.594 60.707 292.594 58.7539V58.4727ZM294 58.8594C294 60.375 294.391 61.6211 295.172 62.5977C295.961 63.5664 296.992 64.0508 298.266 64.0508C299.531 64.0508 300.555 63.5664 301.336 62.5977C302.125 61.6211 302.52 60.3359 302.52 58.7422V58.4727C302.52 57.5039 302.34 56.6172 301.98 55.8125C301.621 55.0078 301.117 54.3867 300.469 53.9492C299.82 53.5039 299.078 53.2812 298.242 53.2812C296.992 53.2812 295.973 53.7734 295.184 54.7578C294.395 55.7344 294 57.0156 294 58.6016V58.8594ZM312.68 53.5156C312.383 53.4609 312.066 53.4336 311.73 53.4336C310.855 53.4336 310.113 53.6797 309.504 54.1719C308.902 54.6562 308.473 55.3633 308.215 56.293V65H306.82V52.3203H308.191L308.215 54.3359C308.957 52.8359 310.148 52.0859 311.789 52.0859C312.18 52.0859 312.488 52.1367 312.715 52.2383L312.68 53.5156ZM316.184 52.3203L316.23 54.3828C316.699 53.6172 317.285 53.043 317.988 52.6602C318.691 52.2773 319.473 52.0859 320.332 52.0859C322.332 52.0859 323.602 52.9062 324.141 54.5469C324.594 53.7578 325.199 53.1523 325.957 52.7305C326.715 52.3008 327.551 52.0859 328.465 52.0859C331.184 52.0859 332.57 53.5703 332.625 56.5391V65H331.219V56.6445C331.211 55.5117 330.965 54.6719 330.48 54.125C330.004 53.5781 329.223 53.3047 328.137 53.3047C327.129 53.3203 326.277 53.6484 325.582 54.2891C324.887 54.9219 324.5 55.6953 324.422 56.6094V65H323.016V56.5391C323.008 55.4531 322.75 54.6445 322.242 54.1133C321.742 53.5742 320.969 53.3047 319.922 53.3047C319.039 53.3047 318.281 53.5586 317.648 54.0664C317.016 54.5664 316.547 55.3125 316.242 56.3047V65H314.836V52.3203H316.184ZM344.191 65C344.051 64.6016 343.961 64.0117 343.922 63.2305C343.43 63.8711 342.801 64.3672 342.035 64.7188C341.277 65.0625 340.473 65.2344 339.621 65.2344C338.402 65.2344 337.414 64.8945 336.656 64.2148C335.906 63.5352 335.531 62.6758 335.531 61.6367C335.531 60.4023 336.043 59.4258 337.066 58.707C338.098 57.9883 339.531 57.6289 341.367 57.6289H343.91V56.1875C343.91 55.2812 343.629 54.5703 343.066 54.0547C342.512 53.5312 341.699 53.2695 340.629 53.2695C339.652 53.2695 338.844 53.5195 338.203 54.0195C337.562 54.5195 337.242 55.1211 337.242 55.8242L335.836 55.8125C335.836 54.8047 336.305 53.9336 337.242 53.1992C338.18 52.457 339.332 52.0859 340.699 52.0859C342.113 52.0859 343.227 52.4414 344.039 53.1523C344.859 53.8555 345.281 54.8398 345.305 56.1055V62.1055C345.305 63.332 345.434 64.25 345.691 64.8594V65H344.191ZM339.785 63.9922C340.723 63.9922 341.559 63.7656 342.293 63.3125C343.035 62.8594 343.574 62.2539 343.91 61.4961V58.707H341.402C340.004 58.7227 338.91 58.9805 338.121 59.4805C337.332 59.9727 336.938 60.6523 336.938 61.5195C336.938 62.2305 337.199 62.8203 337.723 63.2891C338.254 63.7578 338.941 63.9922 339.785 63.9922ZM356.648 61.7773C356.648 61.082 356.367 60.5234 355.805 60.1016C355.25 59.6797 354.41 59.3516 353.285 59.1172C352.16 58.875 351.285 58.6016 350.66 58.2969C350.043 57.9844 349.582 57.6055 349.277 57.1602C348.98 56.7148 348.832 56.1758 348.832 55.543C348.832 54.543 349.25 53.7188 350.086 53.0703C350.922 52.4141 351.992 52.0859 353.297 52.0859C354.711 52.0859 355.844 52.4375 356.695 53.1406C357.555 53.8359 357.984 54.7461 357.984 55.8711H356.578C356.578 55.1289 356.266 54.5117 355.641 54.0195C355.023 53.5273 354.242 53.2812 353.297 53.2812C352.375 53.2812 351.633 53.4883 351.07 53.9023C350.516 54.3086 350.238 54.8398 350.238 55.4961C350.238 56.1289 350.469 56.6211 350.93 56.9727C351.398 57.3164 352.246 57.6328 353.473 57.9219C354.707 58.2109 355.629 58.5195 356.238 58.8477C356.855 59.1758 357.312 59.5703 357.609 60.0312C357.906 60.4922 358.055 61.0508 358.055 61.707C358.055 62.7773 357.621 63.6328 356.754 64.2734C355.895 64.9141 354.77 65.2344 353.379 65.2344C351.902 65.2344 350.703 64.8789 349.781 64.168C348.867 63.4492 348.41 62.543 348.41 61.4492H349.816C349.871 62.2695 350.215 62.9102 350.848 63.3711C351.488 63.8242 352.332 64.0508 353.379 64.0508C354.355 64.0508 355.145 63.8359 355.746 63.4062C356.348 62.9766 356.648 62.4336 356.648 61.7773ZM362.789 65H361.383V52.3203H362.789V65ZM361.137 48.6523C361.137 48.3867 361.223 48.1641 361.395 47.9844C361.566 47.7969 361.801 47.7031 362.098 47.7031C362.395 47.7031 362.629 47.7969 362.801 47.9844C362.98 48.1641 363.07 48.3867 363.07 48.6523C363.07 48.918 362.98 49.1406 362.801 49.3203C362.629 49.5 362.395 49.5898 362.098 49.5898C361.801 49.5898 361.566 49.5 361.395 49.3203C361.223 49.1406 361.137 48.918 361.137 48.6523ZM275.812 88.8047C275.812 87.8594 275.48 87.1133 274.816 86.5664C274.152 86.0117 272.938 85.4883 271.172 84.9961C269.406 84.4961 268.117 83.9531 267.305 83.3672C266.148 82.5391 265.57 81.4531 265.57 80.1094C265.57 78.8047 266.105 77.7461 267.176 76.9336C268.254 76.1133 269.629 75.7031 271.301 75.7031C272.434 75.7031 273.445 75.9219 274.336 76.3594C275.234 76.7969 275.93 77.4062 276.422 78.1875C276.914 78.9688 277.16 79.8398 277.16 80.8008H275.707C275.707 79.6367 275.309 78.7031 274.512 78C273.715 77.2891 272.645 76.9336 271.301 76.9336C269.996 76.9336 268.957 77.2266 268.184 77.8125C267.41 78.3906 267.023 79.1484 267.023 80.0859C267.023 80.9531 267.371 81.6602 268.066 82.207C268.762 82.7539 269.875 83.2383 271.406 83.6602C272.938 84.0742 274.098 84.5078 274.887 84.9609C275.676 85.4062 276.27 85.9414 276.668 86.5664C277.066 87.1914 277.266 87.9297 277.266 88.7812C277.266 90.125 276.727 91.2031 275.648 92.0156C274.578 92.8281 273.164 93.2344 271.406 93.2344C270.203 93.2344 269.098 93.0195 268.09 92.5898C267.09 92.1602 266.328 91.5586 265.805 90.7852C265.289 90.0117 265.031 89.125 265.031 88.125H266.473C266.473 89.3281 266.922 90.2773 267.82 90.9727C268.719 91.668 269.914 92.0156 271.406 92.0156C272.734 92.0156 273.801 91.7227 274.605 91.1367C275.41 90.5508 275.812 89.7734 275.812 88.8047ZM284.965 93.2344C283.887 93.2344 282.91 92.9688 282.035 92.4375C281.168 91.9062 280.492 91.168 280.008 90.2227C279.523 89.2695 279.281 88.2031 279.281 87.0234V86.5195C279.281 85.3008 279.516 84.2031 279.984 83.2266C280.461 82.25 281.121 81.4844 281.965 80.9297C282.809 80.3672 283.723 80.0859 284.707 80.0859C286.246 80.0859 287.465 80.6133 288.363 81.668C289.27 82.7148 289.723 84.1484 289.723 85.9688V86.7539H280.676V87.0234C280.676 88.4609 281.086 89.6602 281.906 90.6211C282.734 91.5742 283.773 92.0508 285.023 92.0508C285.773 92.0508 286.434 91.9141 287.004 91.6406C287.582 91.3672 288.105 90.9297 288.574 90.3281L289.453 90.9961C288.422 92.4883 286.926 93.2344 284.965 93.2344ZM284.707 81.2812C283.652 81.2812 282.762 81.668 282.035 82.4414C281.316 83.2148 280.879 84.2539 280.723 85.5586H288.328V85.4062C288.289 84.1875 287.941 83.1953 287.285 82.4297C286.629 81.6641 285.77 81.2812 284.707 81.2812ZM293.73 80.3203L293.777 82.3828C294.246 81.6172 294.832 81.043 295.535 80.6602C296.238 80.2773 297.02 80.0859 297.879 80.0859C299.879 80.0859 301.148 80.9062 301.688 82.5469C302.141 81.7578 302.746 81.1523 303.504 80.7305C304.262 80.3008 305.098 80.0859 306.012 80.0859C308.73 80.0859 310.117 81.5703 310.172 84.5391V93H308.766V84.6445C308.758 83.5117 308.512 82.6719 308.027 82.125C307.551 81.5781 306.77 81.3047 305.684 81.3047C304.676 81.3203 303.824 81.6484 303.129 82.2891C302.434 82.9219 302.047 83.6953 301.969 84.6094V93H300.562V84.5391C300.555 83.4531 300.297 82.6445 299.789 82.1133C299.289 81.5742 298.516 81.3047 297.469 81.3047C296.586 81.3047 295.828 81.5586 295.195 82.0664C294.562 82.5664 294.094 83.3125 293.789 84.3047V93H292.383V80.3203H293.73ZM315.305 93H313.898V80.3203H315.305V93ZM313.652 76.6523C313.652 76.3867 313.738 76.1641 313.91 75.9844C314.082 75.7969 314.316 75.7031 314.613 75.7031C314.91 75.7031 315.145 75.7969 315.316 75.9844C315.496 76.1641 315.586 76.3867 315.586 76.6523C315.586 76.918 315.496 77.1406 315.316 77.3203C315.145 77.5 314.91 77.5898 314.613 77.5898C314.316 77.5898 314.082 77.5 313.91 77.3203C313.738 77.1406 313.652 76.918 313.652 76.6523ZM320.461 80.3203L320.508 82.4883C320.984 81.707 321.578 81.1133 322.289 80.707C323 80.293 323.785 80.0859 324.645 80.0859C326.004 80.0859 327.016 80.4688 327.68 81.2344C328.344 82 328.68 83.1484 328.688 84.6797V93H327.293V84.668C327.285 83.5352 327.043 82.6914 326.566 82.1367C326.098 81.582 325.344 81.3047 324.305 81.3047C323.438 81.3047 322.668 81.5781 321.996 82.125C321.332 82.6641 320.84 83.3945 320.52 84.3164V93H319.125V80.3203H320.461ZM340.324 93C340.184 92.6016 340.094 92.0117 340.055 91.2305C339.562 91.8711 338.934 92.3672 338.168 92.7188C337.41 93.0625 336.605 93.2344 335.754 93.2344C334.535 93.2344 333.547 92.8945 332.789 92.2148C332.039 91.5352 331.664 90.6758 331.664 89.6367C331.664 88.4023 332.176 87.4258 333.199 86.707C334.23 85.9883 335.664 85.6289 337.5 85.6289H340.043V84.1875C340.043 83.2812 339.762 82.5703 339.199 82.0547C338.645 81.5312 337.832 81.2695 336.762 81.2695C335.785 81.2695 334.977 81.5195 334.336 82.0195C333.695 82.5195 333.375 83.1211 333.375 83.8242L331.969 83.8125C331.969 82.8047 332.438 81.9336 333.375 81.1992C334.312 80.457 335.465 80.0859 336.832 80.0859C338.246 80.0859 339.359 80.4414 340.172 81.1523C340.992 81.8555 341.414 82.8398 341.438 84.1055V90.1055C341.438 91.332 341.566 92.25 341.824 92.8594V93H340.324ZM335.918 91.9922C336.855 91.9922 337.691 91.7656 338.426 91.3125C339.168 90.8594 339.707 90.2539 340.043 89.4961V86.707H337.535C336.137 86.7227 335.043 86.9805 334.254 87.4805C333.465 87.9727 333.07 88.6523 333.07 89.5195C333.07 90.2305 333.332 90.8203 333.855 91.2891C334.387 91.7578 335.074 91.9922 335.918 91.9922ZM351.047 81.5156C350.75 81.4609 350.434 81.4336 350.098 81.4336C349.223 81.4336 348.48 81.6797 347.871 82.1719C347.27 82.6562 346.84 83.3633 346.582 84.293V93H345.188V80.3203H346.559L346.582 82.3359C347.324 80.8359 348.516 80.0859 350.156 80.0859C350.547 80.0859 350.855 80.1367 351.082 80.2383L351.047 81.5156ZM277.734 105.168H271.887V121H270.445V105.168H264.609V103.938H277.734V105.168ZM287.203 119.395C286.359 120.621 285.012 121.234 283.16 121.234C281.809 121.234 280.781 120.844 280.078 120.062C279.375 119.273 279.016 118.109 279 116.57V108.32H280.395V116.395C280.395 118.809 281.371 120.016 283.324 120.016C285.355 120.016 286.641 119.176 287.18 117.496V108.32H288.586V121H287.227L287.203 119.395ZM291.68 114.543C291.68 112.559 292.117 110.988 292.992 109.832C293.875 108.668 295.07 108.086 296.578 108.086C298.305 108.086 299.617 108.773 300.516 110.148L300.586 108.32H301.898V120.742C301.898 122.375 301.441 123.668 300.527 124.621C299.613 125.574 298.375 126.051 296.812 126.051C295.93 126.051 295.086 125.852 294.281 125.453C293.484 125.062 292.855 124.539 292.395 123.883L293.18 123.039C294.172 124.258 295.352 124.867 296.719 124.867C297.891 124.867 298.805 124.52 299.461 123.824C300.117 123.137 300.457 122.18 300.48 120.953V119.359C299.582 120.609 298.273 121.234 296.555 121.234C295.086 121.234 293.906 120.648 293.016 119.477C292.125 118.305 291.68 116.723 291.68 114.73V114.543ZM293.098 114.789C293.098 116.406 293.422 117.684 294.07 118.621C294.719 119.551 295.633 120.016 296.812 120.016C298.539 120.016 299.762 119.242 300.48 117.695V111.801C300.152 110.988 299.68 110.371 299.062 109.949C298.445 109.52 297.703 109.305 296.836 109.305C295.656 109.305 294.738 109.77 294.082 110.699C293.426 111.621 293.098 112.984 293.098 114.789ZM313.559 121C313.418 120.602 313.328 120.012 313.289 119.23C312.797 119.871 312.168 120.367 311.402 120.719C310.645 121.062 309.84 121.234 308.988 121.234C307.77 121.234 306.781 120.895 306.023 120.215C305.273 119.535 304.898 118.676 304.898 117.637C304.898 116.402 305.41 115.426 306.434 114.707C307.465 113.988 308.898 113.629 310.734 113.629H313.277V112.188C313.277 111.281 312.996 110.57 312.434 110.055C311.879 109.531 311.066 109.27 309.996 109.27C309.02 109.27 308.211 109.52 307.57 110.02C306.93 110.52 306.609 111.121 306.609 111.824L305.203 111.812C305.203 110.805 305.672 109.934 306.609 109.199C307.547 108.457 308.699 108.086 310.066 108.086C311.48 108.086 312.594 108.441 313.406 109.152C314.227 109.855 314.648 110.84 314.672 112.105V118.105C314.672 119.332 314.801 120.25 315.059 120.859V121H313.559ZM309.152 119.992C310.09 119.992 310.926 119.766 311.66 119.312C312.402 118.859 312.941 118.254 313.277 117.496V114.707H310.77C309.371 114.723 308.277 114.98 307.488 115.48C306.699 115.973 306.305 116.652 306.305 117.52C306.305 118.23 306.566 118.82 307.09 119.289C307.621 119.758 308.309 119.992 309.152 119.992ZM326.016 117.777C326.016 117.082 325.734 116.523 325.172 116.102C324.617 115.68 323.777 115.352 322.652 115.117C321.527 114.875 320.652 114.602 320.027 114.297C319.41 113.984 318.949 113.605 318.645 113.16C318.348 112.715 318.199 112.176 318.199 111.543C318.199 110.543 318.617 109.719 319.453 109.07C320.289 108.414 321.359 108.086 322.664 108.086C324.078 108.086 325.211 108.438 326.062 109.141C326.922 109.836 327.352 110.746 327.352 111.871H325.945C325.945 111.129 325.633 110.512 325.008 110.02C324.391 109.527 323.609 109.281 322.664 109.281C321.742 109.281 321 109.488 320.438 109.902C319.883 110.309 319.605 110.84 319.605 111.496C319.605 112.129 319.836 112.621 320.297 112.973C320.766 113.316 321.613 113.633 322.84 113.922C324.074 114.211 324.996 114.52 325.605 114.848C326.223 115.176 326.68 115.57 326.977 116.031C327.273 116.492 327.422 117.051 327.422 117.707C327.422 118.777 326.988 119.633 326.121 120.273C325.262 120.914 324.137 121.234 322.746 121.234C321.27 121.234 320.07 120.879 319.148 120.168C318.234 119.449 317.777 118.543 317.777 117.449H319.184C319.238 118.27 319.582 118.91 320.215 119.371C320.855 119.824 321.699 120.051 322.746 120.051C323.723 120.051 324.512 119.836 325.113 119.406C325.715 118.977 326.016 118.434 326.016 117.777ZM345.961 116.219H338.215L336.457 121H334.945L341.402 103.938H342.773L349.23 121H347.73L345.961 116.219ZM338.66 114.988H345.504L342.082 105.695L338.66 114.988ZM354.434 114.613L352.828 116.16V121H351.422V103H352.828V114.52L354.152 113.09L359.004 108.32H360.773L355.395 113.664L361.242 121H359.566L354.434 114.613ZM364.582 110.465C365.043 109.707 365.633 109.121 366.352 108.707C367.07 108.293 367.855 108.086 368.707 108.086C370.066 108.086 371.078 108.469 371.742 109.234C372.406 110 372.742 111.148 372.75 112.68V121H371.355V112.668C371.348 111.535 371.105 110.691 370.629 110.137C370.16 109.582 369.406 109.305 368.367 109.305C367.5 109.305 366.73 109.578 366.059 110.125C365.395 110.664 364.902 111.395 364.582 112.316V121H363.188V103H364.582V110.465ZM377.93 121H376.523V108.32H377.93V121ZM376.277 104.652C376.277 104.387 376.363 104.164 376.535 103.984C376.707 103.797 376.941 103.703 377.238 103.703C377.535 103.703 377.77 103.797 377.941 103.984C378.121 104.164 378.211 104.387 378.211 104.652C378.211 104.918 378.121 105.141 377.941 105.32C377.77 105.5 377.535 105.59 377.238 105.59C376.941 105.59 376.707 105.5 376.535 105.32C376.363 105.141 376.277 104.918 376.277 104.652ZM387.609 109.516C387.312 109.461 386.996 109.434 386.66 109.434C385.785 109.434 385.043 109.68 384.434 110.172C383.832 110.656 383.402 111.363 383.145 112.293V121H381.75V108.32H383.121L383.145 110.336C383.887 108.836 385.078 108.086 386.719 108.086C387.109 108.086 387.418 108.137 387.645 108.238L387.609 109.516Z" fill="#222831"/>
<rect x="249" y="14" width="5" height="112" fill="#222831"/>
<path d="M126.742 78.0469C126.742 76.7188 126.273 75.7031 125.336 75C124.398 74.2812 122.711 73.5312 120.273 72.75C117.836 71.9531 115.906 71.1719 114.484 70.4062C110.609 68.3125 108.672 65.4922 108.672 61.9453C108.672 60.1016 109.188 58.4609 110.219 57.0234C111.266 55.5703 112.758 54.4375 114.695 53.625C116.648 52.8125 118.836 52.4062 121.258 52.4062C123.695 52.4062 125.867 52.8516 127.773 53.7422C129.68 54.6172 131.156 55.8594 132.203 57.4688C133.266 59.0781 133.797 60.9062 133.797 62.9531H126.766C126.766 61.3906 126.273 60.1797 125.289 59.3203C124.305 58.4453 122.922 58.0078 121.141 58.0078C119.422 58.0078 118.086 58.375 117.133 59.1094C116.18 59.8281 115.703 60.7812 115.703 61.9688C115.703 63.0781 116.258 64.0078 117.367 64.7578C118.492 65.5078 120.141 66.2109 122.312 66.8672C126.312 68.0703 129.227 69.5625 131.055 71.3438C132.883 73.125 133.797 75.3438 133.797 78C133.797 80.9531 132.68 83.2734 130.445 84.9609C128.211 86.6328 125.203 87.4688 121.422 87.4688C118.797 87.4688 116.406 86.9922 114.25 86.0391C112.094 85.0703 110.445 83.75 109.305 82.0781C108.18 80.4062 107.617 78.4688 107.617 76.2656H114.672C114.672 80.0312 116.922 81.9141 121.422 81.9141C123.094 81.9141 124.398 81.5781 125.336 80.9062C126.273 80.2188 126.742 79.2656 126.742 78.0469ZM146.055 87H139.023V52.875H146.055V87ZM170.289 78.0469C170.289 76.7188 169.82 75.7031 168.883 75C167.945 74.2812 166.258 73.5312 163.82 72.75C161.383 71.9531 159.453 71.1719 158.031 70.4062C154.156 68.3125 152.219 65.4922 152.219 61.9453C152.219 60.1016 152.734 58.4609 153.766 57.0234C154.812 55.5703 156.305 54.4375 158.242 53.625C160.195 52.8125 162.383 52.4062 164.805 52.4062C167.242 52.4062 169.414 52.8516 171.32 53.7422C173.227 54.6172 174.703 55.8594 175.75 57.4688C176.812 59.0781 177.344 60.9062 177.344 62.9531H170.312C170.312 61.3906 169.82 60.1797 168.836 59.3203C167.852 58.4453 166.469 58.0078 164.688 58.0078C162.969 58.0078 161.633 58.375 160.68 59.1094C159.727 59.8281 159.25 60.7812 159.25 61.9688C159.25 63.0781 159.805 64.0078 160.914 64.7578C162.039 65.5078 163.688 66.2109 165.859 66.8672C169.859 68.0703 172.773 69.5625 174.602 71.3438C176.43 73.125 177.344 75.3438 177.344 78C177.344 80.9531 176.227 83.2734 173.992 84.9609C171.758 86.6328 168.75 87.4688 164.969 87.4688C162.344 87.4688 159.953 86.9922 157.797 86.0391C155.641 85.0703 153.992 83.75 152.852 82.0781C151.727 80.4062 151.164 78.4688 151.164 76.2656H158.219C158.219 80.0312 160.469 81.9141 164.969 81.9141C166.641 81.9141 167.945 81.5781 168.883 80.9062C169.82 80.2188 170.289 79.2656 170.289 78.0469ZM207.812 58.5703H197.359V87H190.328V58.5703H180.016V52.875H207.812V58.5703ZM228.297 79.9688H215.969L213.625 87H206.148L218.852 52.875H225.367L238.141 87H230.664L228.297 79.9688ZM217.867 74.2734H226.398L222.109 61.5L217.867 74.2734Z" fill="#222831"/>
<path d="M43.6099 110.689C85.8293 101.704 121.159 114.034 139.415 126.672C88.8411 109.624 64.1088 116.17 31.9958 124.34L35.2011 100.403L44.5198 99.7606C44.6309 100.075 44.6044 102.7 43.6099 110.689Z" fill="#222831"/>
<path d="M57.9837 13.3316C78.3979 15.873 95.7101 27.0416 101.814 32.3082C87.743 23.7063 72.3177 21.8761 66.364 22.0362C64.5844 31.504 60.5004 54.6555 58.401 71.5194C100.784 80.4013 122.978 92.1776 139.358 123.51C114.545 89.3251 67.7511 78.467 48.725 78.6521C50.6317 64.5433 55.1528 31.7268 57.9837 13.3316Z" fill="#32E0C4"/>
<path d="M41.0202 89.8609C91.4133 86.8959 118.631 105.382 140.024 125.396C102.407 99.4496 59.1621 96.1755 29.7919 98.603L38.9125 34.3919L52.8642 36.3542L51.0926 43.3443L46.8214 43.2632C45.0989 55.8927 41.5271 82.8936 41.0202 89.8609Z" fill="#4C4C4C"/>
</svg>
